<svg xmlns="http://www.w3.org/2000/svg" width="324.969" height="67.313" viewBox="0 0 324.969 67.313">
  <defs>
    <style>
      .cls-1 {
        fill: #ea1c1c;
      }

      .cls-1, .cls-2 {
        fill-rule: evenodd;
      }
    </style>
  </defs>
  <path class="cls-1" d="M168.086,610.522H479.84l-13.211,67.316H154.875Z" transform="translate(-154.875 -610.531)"/>
  <path id="BET_NOW" data-name="BET NOW" class="cls-2" d="M237.394,643.834a8.723,8.723,0,0,0,4.965-6.225c0.853-4.406-2.214-7.357-9.288-7.357H219.247l-5.479,28.3H228.4c7.437,0,11.866-2.83,12.813-7.721C241.9,647.27,240.351,644.844,237.394,643.834Zm-6.086-8.65c3.193,0,4.72,1.091,4.29,3.314s-2.388,3.355-5.582,3.355h-6.508l1.292-6.669h6.508Zm-2.437,18.432h-7.64l1.354-6.993h7.64c3.4,0,5,1.132,4.533,3.517C234.288,652.565,232.266,653.616,228.871,653.616Zm23.385-.323,1.268-6.549h13.137l0.986-5.093H254.51l1.19-6.144h14.875l1.018-5.255H250.21l-5.479,28.3h21.908l1.018-5.255h-15.4Zm25.494,5.255H284.3l4.446-22.96H297.8l1.033-5.336H274.174l-1.033,5.336H282.2Zm55.567-28.3-3.326,17.179L319.25,630.252h-5.416l-5.479,28.3h6.467l3.327-17.18,10.781,17.18h5.376l5.479-28.3h-6.468Zm21.35,28.781c8.893,0,16.679-6.185,18.315-14.633s-3.755-14.633-12.648-14.633c-8.933,0-16.687,6.225-18.315,14.633S345.734,659.033,354.667,659.033Zm1.08-5.579c-5.052,0-8.14-3.678-7.1-9.054a10.936,10.936,0,0,1,10.606-9.055c5.053,0,8.14,3.679,7.1,9.055A10.935,10.935,0,0,1,355.747,653.454Zm60.52-23.2L405.8,650.3l-2.585-20.049h-6.063L386.627,650.14l-2.536-19.888H377.3l3.818,28.3h6.993l10.137-19.16,2.515,19.16H407.8l14.736-28.3h-6.266Z" transform="translate(-154.875 -610.531)"/>
</svg>
