<svg xmlns="http://www.w3.org/2000/svg" viewBox="0 0 444.61 51.08"><defs><style>.cls-1{fill:#1b9dd9;}.cls-2{fill:#e6352b;}.cls-3{fill:#fff;}</style></defs><title>мп_лого</title><g id="Слой_2" data-name="Слой 2"><g id="Слой_1-2" data-name="Слой 1"><path class="cls-1" d="M257.6,10.79a11.11,11.11,0,0,1-22.21,0,11.11,11.11,0,0,1,22.21,0"/><path class="cls-2" d="M257.6,40.29A11.11,11.11,0,1,1,246.5,29.5a10.87,10.87,0,0,1,11.1,10.79"/><path class="cls-3" d="M295,1.59H274.1v47.9h13.64V35.85h6.66c12.21,0,21.1-6,21.1-17.29C315.5,7.77,307.41,1.59,295,1.59Zm-.95,23.79h-6.5V12.69h6.34c4.92,0,7.78,2.22,7.78,6.34C301.85,23,298.84,25.38,294.08,25.38ZM104.69,37.59H78.36V30h23.47V19.51H78.36v-7.3h26V1H65V48.86h39.66ZM28.39,22.05H26.33L19,1H0V48.86H14V23.32h1.43L23.79,47h7l8.41-23.63h1.43V49h13.8V1.11H35.69ZM334.69,1.59,313.75,49.65H328l3.49-8.57h18.87l3.49,8.57h14.59L347.7,1.59Zm.79,29.18,4.92-11.89h1.27l4.76,11.89Zm-193.36-.16h5.4l5.39.16a9.82,9.82,0,0,1-1.9,3,13.77,13.77,0,0,1-4.6,3.33h0a13.88,13.88,0,0,1-6.67,1.42c-7.77,0-13.32-5.55-13.32-13.32,0-7.45,5.39-13.32,12.53-13.32,4.76,0,8.25,1.58,11.9,4.44L158.78,7C153.54,2.54,147.52,0,139,0c-15.23,0-26.33,10.94-26.33,24.9,0,14.6,11.42,24.91,26.65,24.91a33.07,33.07,0,0,0,21.25-7.46V20.94h-18.4ZM187.33,1,166.55,48.86h14.28l3.49-8.57h18.87l3.49,8.57h14.6L200.5,1Zm.79,29.19,4.76-11.74h1.43l4.76,11.74ZM431,1.59v47.9h13.64V1.59ZM418.92,18.08c0-4.91-1.43-8.56-4.29-11.42-3.33-3.17-8.4-5.07-16-5.07h-23v47.9h13.64V34.9h5.87L405,49.49h15.7L408.92,32.83C415,30.3,418.92,25.38,418.92,18.08ZM398,24.59H389.1V13H398c4.6,0,7.29,1.9,7.29,5.71C405.27,22.37,402.74,24.59,398,24.59Z"/></g></g></svg>